<svg width="960" height="292" viewBox="0 0 960 292" fill="none" xmlns="http://www.w3.org/2000/svg">
<path d="M0.480011 206.347V4.74416H35.9049V206.347H0.480011Z" fill="white"/>
<path d="M126.585 60.0917C81.1656 60.0917 49.7348 95.0025 49.7348 134.961C49.7348 179.558 83.9279 210.28 126.938 210.28C167.757 210.28 203.179 180.123 203.179 134.865C203.179 96.8073 173.827 60.0917 126.585 60.0917ZM126.168 94.2546C149.937 94.2546 167.433 112.751 167.433 135.09C167.433 158.775 148.143 176.053 126.81 176.053C101.601 176.053 85.7373 156.08 85.7373 135.154C85.7373 112.217 103.648 94.2546 126.168 94.2546Z" fill="white"/>
<path d="M292.184 60.0917C246.764 60.0917 215.334 95.0025 215.334 134.961C215.334 179.558 249.527 210.28 292.537 210.28C333.356 210.28 368.777 180.123 368.777 134.865C368.777 108.214 357.232 96.3884 357.232 96.3884L367.051 93.0224V64.2806H316.737C316.737 64.2806 305.83 60.0917 292.184 60.0917V60.0917ZM291.767 94.2546C315.536 94.2546 333.032 112.751 333.032 135.09C333.032 158.775 313.742 176.053 292.409 176.053C267.2 176.053 251.336 156.08 251.336 135.154C251.336 112.217 269.247 94.2546 291.767 94.2546V94.2546Z" fill="white"/>
<path d="M332.781 216.201C332.781 239.887 313.492 257.293 292.158 257.293C266.95 257.293 251.022 237.127 251.022 216.201H215.083C215.083 260.798 249.276 291.52 292.286 291.52C333.105 291.52 368.527 261.46 368.527 216.201H332.781Z" fill="white"/>
<path d="M382.967 206.347V64.2806H418.391V206.347H382.967Z" fill="white"/>
<path d="M452.79 206.347V96.102H433.794V64.2806H452.79V20.6548H488.215V64.2806H507.724V96.102H488.215V206.347H452.79Z" fill="white"/>
<path d="M424.063 23.931C424.063 36.8826 413.561 47.382 400.605 47.382C387.649 47.382 377.147 36.8826 377.147 23.931C377.147 10.9793 387.649 0.479965 400.605 0.479965C413.561 0.479965 424.063 10.9793 424.063 23.931Z" fill="white"/>
<path d="M587.366 59.9954C541.731 59.9954 512.312 94.9245 512.312 136.245C512.312 178.944 541.829 210.376 588.104 210.376C631.27 210.376 652.504 183.431 652.504 183.431L628.823 159.725C628.823 159.725 610.943 179.004 588.553 179.004C569.888 179.004 554.965 168.59 549.759 149.493H660.141V139.741C660.141 100.83 637.613 59.9954 587.366 59.9954V59.9954ZM586.243 91.175C602.562 91.175 619.251 99.9028 622.983 120.751H548.796C551.735 106.096 564.559 91.175 586.243 91.175Z" fill="white"/>
<path d="M748.749 210.395C702.986 210.395 671.803 175.55 671.803 134.467C671.803 92.068 707.045 59.9687 748.602 59.9687C788.777 59.9687 809.34 88.3203 809.34 88.3203L784.628 112.913C784.628 112.913 770.313 94.4231 748.434 94.4231C724.185 94.4231 707.604 112.967 707.604 135.01C707.604 158.285 725.242 176.142 748.162 176.142C770.393 176.142 784.594 157.683 784.594 157.683L809.553 182.262C809.553 182.262 789.189 210.395 748.749 210.395V210.395Z" fill="white"/>
<path d="M822.441 206.45V4.23091H857.866V78.527C857.866 78.527 871.43 59.9686 900.937 59.9686C938.03 59.9686 959.52 87.5345 959.52 122.791V206.45H924.095V128.143C924.095 104.457 909.344 94.6308 893.003 94.6308C874.384 94.6308 857.866 105.223 857.866 129.976V206.45H822.441Z" fill="white"/>
</svg>
