<svg width="254" height="250" viewBox="0 0 254 250" fill="none" xmlns="http://www.w3.org/2000/svg">
<path d="M200 100C200 155.228 155.228 200 100 200C44.7715 200 0 155.228 0 100C0 44.7715 44.7715 0 100 0C155.228 0 200 44.7715 200 100ZM27.5496 100C27.5496 140.013 59.9868 172.45 100 172.45C140.013 172.45 172.45 140.013 172.45 100C172.45 59.9868 140.013 27.5496 100 27.5496C59.9868 27.5496 27.5496 59.9868 27.5496 100Z" fill="#D9D9D9"/>
<path d="M146 174.192L166.876 150L253.941 225.131L233.065 249.323L146 174.192Z" fill="#D9D9D9"/>
</svg>
